<?xml version="1.0" encoding="UTF-8" standalone="no"?>
<!DOCTYPE svg PUBLIC "-//W3C//DTD SVG 1.1//EN" "http://www.w3.org/Graphics/SVG/1.1/DTD/svg11.dtd">
<svg width="100%" height="100%" viewBox="0 0 1000 400" version="1.1" xmlns="http://www.w3.org/2000/svg" xmlns:xlink="http://www.w3.org/1999/xlink" xml:space="preserve" xmlns:serif="http://www.serif.com/" style="fill-rule:evenodd;clip-rule:evenodd;stroke-linecap:round;stroke-linejoin:round;stroke-miterlimit:1.5;">
    <g transform="matrix(8.1624,0,0,8.1624,-16.485,-63.7568)">
        <path d="M54.955,38.148L57.802,26.171L45.265,26.171L45.913,23.506L58.426,23.506L59.158,20.494L38.887,20.494L33.185,43.951L53.456,43.951L54.186,40.947L41.674,40.947L42.354,38.148L54.955,38.148ZM47.873,35.136L49.32,29.183L44.533,29.183L43.086,35.136L47.873,35.136Z" style="fill:rgb(255,95,169);"/>
    </g>
    <path d="M541.031,126.672L525.496,126.672L519.52,151.258L535.055,151.258L500.117,294.987L436.789,294.987L498.149,126.454L477.756,126.454L483.331,103.52L546.659,103.52L541.031,126.672ZM583.868,128.106L547.257,128.106L553.234,103.52L657.462,103.52L651.486,128.106L612.476,128.106L606.855,151.232L646.802,151.232L623.785,245.919L582.575,245.919C569.485,274.158 540.879,293.763 507.73,293.763C505.477,293.763 503.246,293.673 501.035,293.495C527.813,291.008 549.688,271.508 555.732,245.919L519.556,245.919L542.573,151.232L578.246,151.232L583.868,128.106ZM506.299,174.284L502.36,174.284L468.348,270.417L482.931,270.417L506.299,174.284ZM565.461,203.831L554.768,203.831L547.457,233.905L558.15,233.905L565.461,203.831ZM594.069,203.831L586.758,233.905L597.302,233.905L604.613,203.831L594.069,203.831ZM575.404,162.924L564.697,162.924L557.386,192.999L568.093,192.999L575.404,162.924ZM604.013,162.924L596.702,192.999L607.231,192.999L614.541,162.924L604.013,162.924Z" style="fill:rgb(255,95,169);"/>
    <g transform="matrix(8.1624,0,0,8.1624,-16.485,-63.7568)">
        <path d="M100.722,43.951L98.493,32.803L92.993,32.803C92.422,33.794 92.059,34.426 92.055,34.433C89.315,39.128 84.626,42.504 79.105,43.55L79.04,43.562C77.895,43.79 76.58,43.906 75.369,43.906C75.35,43.906 75.347,43.906 75.307,43.906C74.034,43.906 73,42.872 73,41.599C73,40.326 74.034,39.293 75.307,39.293C76.58,39.293 77.613,40.326 77.613,41.599L77.613,41.678C77.613,42.327 78.14,42.854 78.789,42.854C79.149,42.854 79.471,42.692 79.687,42.437L92.318,20.494L99.483,20.494L103.322,39.495L110.581,26.884C112.892,23.056 117.091,20.494 121.884,20.494C121.911,20.494 121.94,20.494 121.969,20.494L122.018,20.494L108.516,43.951L100.722,43.951ZM98.227,31.475L97.075,25.71L93.757,31.475L98.227,31.475Z" style="fill:rgb(255,95,169);"/>
    </g>
    <g transform="matrix(8.1624,0,0,8.1624,-16.485,-63.7568)">
        <path d="M29.014,12.337L38.949,12.337L31.843,41.569C31.786,41.837 31.722,42.102 31.65,42.364L31.107,43.951C29.041,48.962 24.107,52.493 18.354,52.493C10.744,52.493 4.566,46.315 4.566,38.705C4.566,36.419 5.124,34.263 6.11,32.365L6.115,32.368C7.055,30.707 8.838,29.585 10.881,29.585C13.901,29.585 16.353,32.037 16.353,35.057C16.353,37.383 14.899,39.373 12.851,40.164C12.815,40.177 12.66,40.233 12.659,40.234C11.585,40.669 10.825,41.723 10.825,42.954C10.825,44.573 12.14,45.887 13.759,45.887C15.166,45.887 16.343,44.894 16.627,43.571C16.629,43.563 16.631,43.554 16.635,43.544L21.095,25.194L21.095,25.191L21.096,25.191L23.069,17.073C23.763,14.406 26.152,12.42 29.014,12.337Z" style="fill:rgb(151,97,255);stroke:white;stroke-width:0.12px;"/>
    </g>
</svg>
