<?xml version="1.0" encoding="UTF-8" standalone="no"?>
<!DOCTYPE svg PUBLIC "-//W3C//DTD SVG 1.1//EN" "http://www.w3.org/Graphics/SVG/1.1/DTD/svg11.dtd">
<svg width="100%" height="100%" viewBox="0 0 1000 1000" version="1.1" xmlns="http://www.w3.org/2000/svg" xmlns:xlink="http://www.w3.org/1999/xlink" xml:space="preserve" xmlns:serif="http://www.serif.com/" style="fill-rule:evenodd;clip-rule:evenodd;stroke-linecap:round;stroke-linejoin:round;stroke-miterlimit:1.5;">
    <g transform="matrix(19.7267,0,0,19.7267,74.4064,-140.024)">
        <path d="M29.014,12.337L38.949,12.337L31.843,41.569C31.786,41.837 31.722,42.102 31.65,42.364L31.107,43.951C29.041,48.962 24.107,52.493 18.354,52.493C10.744,52.493 4.566,46.315 4.566,38.705C4.566,36.419 5.124,34.263 6.11,32.365L6.115,32.368C7.055,30.707 8.838,29.585 10.881,29.585C13.901,29.585 16.353,32.037 16.353,35.057C16.353,37.383 14.899,39.373 12.851,40.164C12.815,40.177 12.66,40.233 12.659,40.234C11.585,40.669 10.825,41.723 10.825,42.954C10.825,44.573 12.14,45.887 13.759,45.887C15.166,45.887 16.343,44.894 16.627,43.571C16.629,43.563 16.631,43.554 16.635,43.544L21.095,25.194L21.095,25.191L21.096,25.191L23.069,17.073C23.763,14.406 26.152,12.42 29.014,12.337Z" style="fill:rgb(151,97,255);stroke:white;stroke-width:0.05px;"/>
    </g>
</svg>
